<svg xmlns="http://www.w3.org/2000/svg" width="1120" height="640" viewBox="0 0 1120 640">
<rect width="100%" height="100%" fill="white"/>
<text x="560.0" y="28" font-size="18" font-family="Arial, sans-serif" text-anchor="middle" font-weight="bold">Fine-grained Profile of CPU-GPU Heterogeneous Decode Path</text>
<text x="560.0" y="50" font-size="12" font-family="Arial, sans-serif" text-anchor="middle" font-weight="normal">Llama-3.1-8B-Instruct, batch=1, max_new_tokens=8</text>
<text x="233" y="86.0" font-size="12" font-family="Arial, sans-serif" text-anchor="end" font-weight="normal">ctx=128 wall=29.51s</text>
<rect x="245.0" y="68.0" width="0.4" height="26" fill="#0891b2"/>
<rect x="245.4" y="68.0" width="0.5" height="26" fill="#dc2626"/>
<rect x="245.9" y="68.0" width="3.1" height="26" fill="#ea580c"/>
<rect x="249.0" y="68.0" width="0.2" height="26" fill="#16a34a"/>
<rect x="249.1" y="68.0" width="0.1" height="26" fill="#64748b"/>
<rect x="249.2" y="68.0" width="0.5" height="26" fill="#ca8a04"/>
<rect x="249.7" y="68.0" width="754.5" height="26" fill="#111827"/>
<text x="626.9468644364385" y="86.0" font-size="10" font-family="Arial, sans-serif" text-anchor="middle" font-weight="normal">27.9s</text>
<rect x="1004.2" y="68.0" width="0.8" height="26" fill="#be123c"/>
<text x="1013.0" y="86.0" font-size="11" font-family="Arial, sans-serif" text-anchor="start" font-weight="normal">28.13s</text>
<text x="233" y="154.4" font-size="12" font-family="Arial, sans-serif" text-anchor="end" font-weight="normal">ctx=512 wall=26.82s</text>
<rect x="245.0" y="136.4" width="0.1" height="26" fill="#2563eb"/>
<rect x="245.1" y="136.4" width="0.1" height="26" fill="#7c3aed"/>
<rect x="245.2" y="136.4" width="0.4" height="26" fill="#0891b2"/>
<rect x="245.6" y="136.4" width="0.4" height="26" fill="#dc2626"/>
<rect x="246.0" y="136.4" width="2.6" height="26" fill="#ea580c"/>
<rect x="248.6" y="136.4" width="0.1" height="26" fill="#16a34a"/>
<rect x="248.8" y="136.4" width="0.1" height="26" fill="#64748b"/>
<rect x="248.9" y="136.4" width="0.4" height="26" fill="#ca8a04"/>
<rect x="249.3" y="136.4" width="670.0" height="26" fill="#111827"/>
<text x="584.278363268732" y="154.4" font-size="10" font-family="Arial, sans-serif" text-anchor="middle" font-weight="normal">24.8s</text>
<rect x="919.3" y="136.4" width="0.8" height="26" fill="#be123c"/>
<text x="928.106997762277" y="154.4" font-size="11" font-family="Arial, sans-serif" text-anchor="start" font-weight="normal">24.98s</text>
<line x1="245.0" y1="210.8" x2="245.0" y2="216.8" stroke="#222"/>
<text x="245.0" y="234.8" font-size="10" font-family="Arial, sans-serif" text-anchor="middle" font-weight="normal">0.0s</text>
<line x1="397.0" y1="210.8" x2="397.0" y2="216.8" stroke="#222"/>
<text x="397.0" y="234.8" font-size="10" font-family="Arial, sans-serif" text-anchor="middle" font-weight="normal">5.6s</text>
<line x1="549.0" y1="210.8" x2="549.0" y2="216.8" stroke="#222"/>
<text x="549.0" y="234.8" font-size="10" font-family="Arial, sans-serif" text-anchor="middle" font-weight="normal">11.3s</text>
<line x1="701.0" y1="210.8" x2="701.0" y2="216.8" stroke="#222"/>
<text x="701.0" y="234.8" font-size="10" font-family="Arial, sans-serif" text-anchor="middle" font-weight="normal">16.9s</text>
<line x1="853.0" y1="210.8" x2="853.0" y2="216.8" stroke="#222"/>
<text x="853.0" y="234.8" font-size="10" font-family="Arial, sans-serif" text-anchor="middle" font-weight="normal">22.5s</text>
<line x1="1005.0" y1="210.8" x2="1005.0" y2="216.8" stroke="#222"/>
<text x="1005.0" y="234.8" font-size="10" font-family="Arial, sans-serif" text-anchor="middle" font-weight="normal">28.1s</text>
<line x1="245" y1="216.8" x2="1005" y2="216.8" stroke="#222"/>
<text x="625.0" y="258.8" font-size="12" font-family="Arial, sans-serif" text-anchor="middle" font-weight="normal">Accumulated instrumented time</text>
<rect x="60" y="294.8" width="14" height="14" fill="#2563eb"/>
<text x="82" y="306.8" font-size="11" font-family="Arial, sans-serif" text-anchor="start" font-weight="normal">GPU attention / prefill</text>
<rect x="490" y="294.8" width="14" height="14" fill="#7c3aed"/>
<text x="512" y="306.8" font-size="11" font-family="Arial, sans-serif" text-anchor="start" font-weight="normal">Prefill KV D2H enqueue</text>
<rect x="60" y="318.8" width="14" height="14" fill="#0891b2"/>
<text x="82" y="330.8" font-size="11" font-family="Arial, sans-serif" text-anchor="start" font-weight="normal">Wait prefill D2H</text>
<rect x="490" y="318.8" width="14" height="14" fill="#dc2626"/>
<text x="512" y="330.8" font-size="11" font-family="Arial, sans-serif" text-anchor="start" font-weight="normal">Decode KV D2H</text>
<rect x="60" y="342.8" width="14" height="14" fill="#ea580c"/>
<text x="82" y="354.8" font-size="11" font-family="Arial, sans-serif" text-anchor="start" font-weight="normal">Decode KV cache write</text>
<rect x="490" y="342.8" width="14" height="14" fill="#16a34a"/>
<text x="512" y="354.8" font-size="11" font-family="Arial, sans-serif" text-anchor="start" font-weight="normal">Query D2H</text>
<rect x="60" y="366.8" width="14" height="14" fill="#64748b"/>
<text x="82" y="378.8" font-size="11" font-family="Arial, sans-serif" text-anchor="start" font-weight="normal">CPU output alloc</text>
<rect x="490" y="366.8" width="14" height="14" fill="#ca8a04"/>
<text x="512" y="378.8" font-size="11" font-family="Arial, sans-serif" text-anchor="start" font-weight="normal">Metadata D2H</text>
<rect x="60" y="390.8" width="14" height="14" fill="#111827"/>
<text x="82" y="402.8" font-size="11" font-family="Arial, sans-serif" text-anchor="start" font-weight="normal">CPU attention Python</text>
<rect x="490" y="390.8" width="14" height="14" fill="#be123c"/>
<text x="512" y="402.8" font-size="11" font-family="Arial, sans-serif" text-anchor="start" font-weight="normal">Output H2D</text>
</svg>